<mxfile host="app.diagrams.net" agent="Mozilla/5.0 (Macintosh; Intel Mac OS X 10_15_7) AppleWebKit/537.36 (KHTML, like Gecko) Chrome/139.0.0.0 Safari/537.36" version="28.1.2">
  <diagram name="Page-1" id="_9L56sv4QrmknDLt8y_k">
    <mxGraphModel dx="2724" dy="1864" grid="0" gridSize="10" guides="1" tooltips="1" connect="1" arrows="1" fold="1" page="0" pageScale="1" pageWidth="827" pageHeight="1169" math="0" shadow="0">
      <root>
        <mxCell id="0" />
        <mxCell id="1" parent="0" />
        <mxCell id="F6ZkjMpdz7qYB0OgJaHN-1" value="" style="rounded=1;whiteSpace=wrap;html=1;fillColor=#d5e8d4;strokeColor=#82b366;" parent="1" vertex="1">
          <mxGeometry x="235" y="-592" width="677" height="785" as="geometry" />
        </mxCell>
        <mxCell id="qlLj7YZ1tqoJXEKJfKqB-7" style="edgeStyle=orthogonalEdgeStyle;rounded=0;orthogonalLoop=1;jettySize=auto;html=1;strokeWidth=2;fontColor=#FF1087;fillColor=#d80073;strokeColor=#A50040;" parent="1" source="F6ZkjMpdz7qYB0OgJaHN-2" target="qlLj7YZ1tqoJXEKJfKqB-6" edge="1">
          <mxGeometry relative="1" as="geometry" />
        </mxCell>
        <mxCell id="F6ZkjMpdz7qYB0OgJaHN-2" value="&lt;div&gt;S3 Storage&lt;/div&gt;" style="sketch=0;points=[[0,0,0],[0.25,0,0],[0.5,0,0],[0.75,0,0],[1,0,0],[0,1,0],[0.25,1,0],[0.5,1,0],[0.75,1,0],[1,1,0],[0,0.25,0],[0,0.5,0],[0,0.75,0],[1,0.25,0],[1,0.5,0],[1,0.75,0]];outlineConnect=0;fontColor=#232F3E;fillColor=#7AA116;strokeColor=#ffffff;dashed=0;verticalLabelPosition=bottom;verticalAlign=top;align=center;html=1;fontSize=12;fontStyle=0;aspect=fixed;shape=mxgraph.aws4.resourceIcon;resIcon=mxgraph.aws4.s3;" parent="1" vertex="1">
          <mxGeometry x="531" y="57" width="78" height="78" as="geometry" />
        </mxCell>
        <mxCell id="F6ZkjMpdz7qYB0OgJaHN-6" value="DynamoDB" style="sketch=0;points=[[0,0,0],[0.25,0,0],[0.5,0,0],[0.75,0,0],[1,0,0],[0,1,0],[0.25,1,0],[0.5,1,0],[0.75,1,0],[1,1,0],[0,0.25,0],[0,0.5,0],[0,0.75,0],[1,0.25,0],[1,0.5,0],[1,0.75,0]];outlineConnect=0;fontColor=#232F3E;fillColor=#C925D1;strokeColor=#ffffff;dashed=0;verticalLabelPosition=bottom;verticalAlign=top;align=center;html=1;fontSize=12;fontStyle=0;aspect=fixed;shape=mxgraph.aws4.resourceIcon;resIcon=mxgraph.aws4.dynamodb;" parent="1" vertex="1">
          <mxGeometry x="279" y="-155" width="78" height="78" as="geometry" />
        </mxCell>
        <mxCell id="qlLj7YZ1tqoJXEKJfKqB-21" style="edgeStyle=orthogonalEdgeStyle;rounded=0;orthogonalLoop=1;jettySize=auto;html=1;startArrow=classic;startFill=1;strokeWidth=2;fillColor=#1ba1e2;strokeColor=#006EAF;" parent="1" source="F6ZkjMpdz7qYB0OgJaHN-3" target="on3z6NU64TIwl9_QxX8q-15" edge="1">
          <mxGeometry relative="1" as="geometry">
            <Array as="points">
              <mxPoint x="387" y="-443" />
              <mxPoint x="387" y="-443" />
            </Array>
          </mxGeometry>
        </mxCell>
        <mxCell id="qlLj7YZ1tqoJXEKJfKqB-28" style="edgeStyle=orthogonalEdgeStyle;rounded=0;orthogonalLoop=1;jettySize=auto;html=1;strokeWidth=2;fillColor=#1ba1e2;strokeColor=#006EAF;" parent="1" source="F6ZkjMpdz7qYB0OgJaHN-3" target="qlLj7YZ1tqoJXEKJfKqB-27" edge="1">
          <mxGeometry relative="1" as="geometry">
            <Array as="points">
              <mxPoint x="767" y="-443" />
              <mxPoint x="767" y="-443" />
            </Array>
          </mxGeometry>
        </mxCell>
        <mxCell id="lJjoPP4x9dMzKAjce_te-5" style="edgeStyle=orthogonalEdgeStyle;rounded=0;orthogonalLoop=1;jettySize=auto;html=1;exitX=1;exitY=0.67;exitDx=0;exitDy=0;exitPerimeter=0;startArrow=classic;startFill=1;strokeWidth=2;fillColor=#1ba1e2;strokeColor=#006EAF;" edge="1" parent="1" source="F6ZkjMpdz7qYB0OgJaHN-3" target="on3z6NU64TIwl9_QxX8q-11">
          <mxGeometry relative="1" as="geometry" />
        </mxCell>
        <mxCell id="F6ZkjMpdz7qYB0OgJaHN-3" value="" style="sketch=0;outlineConnect=0;gradientColor=none;html=1;whiteSpace=wrap;fontSize=12;fontStyle=0;shape=mxgraph.aws4.group;grIcon=mxgraph.aws4.group_aws_step_functions_workflow;strokeColor=#545B64;fillColor=none;verticalAlign=top;align=left;spacingLeft=30;fontColor=#545B64;dashed=0;points=[[0,0.33,0,0,0],[0,0.67,0,0,0],[0.33,1,0,0,0],[0.67,1,0,0,0],[1,0.33,0,0,0],[1,0.5,0,0,0],[1,0.67,0,0,0]];" parent="1" vertex="1">
          <mxGeometry x="446.75" y="-545" width="246.5" height="288" as="geometry" />
        </mxCell>
        <mxCell id="qlLj7YZ1tqoJXEKJfKqB-11" style="edgeStyle=orthogonalEdgeStyle;rounded=0;orthogonalLoop=1;jettySize=auto;html=1;strokeWidth=2;fillColor=#1ba1e2;strokeColor=#006EAF;" parent="1" source="F6ZkjMpdz7qYB0OgJaHN-7" target="F6ZkjMpdz7qYB0OgJaHN-3" edge="1">
          <mxGeometry relative="1" as="geometry" />
        </mxCell>
        <mxCell id="F6ZkjMpdz7qYB0OgJaHN-7" value="Ingestion" style="outlineConnect=0;dashed=0;verticalLabelPosition=bottom;verticalAlign=top;align=center;html=1;shape=mxgraph.aws3.lambda_function;fillColor=#F58534;gradientColor=none;" parent="1" vertex="1">
          <mxGeometry x="535.5" y="-152" width="69" height="72" as="geometry" />
        </mxCell>
        <mxCell id="F6ZkjMpdz7qYB0OgJaHN-9" value="webhook_handler&lt;div&gt;&lt;br&gt;&lt;/div&gt;" style="outlineConnect=0;dashed=0;verticalLabelPosition=bottom;verticalAlign=top;align=center;html=1;shape=mxgraph.aws3.lambda_function;fillColor=#F58534;gradientColor=none;" parent="1" vertex="1">
          <mxGeometry x="283.5" y="-312" width="69" height="72.5" as="geometry" />
        </mxCell>
        <mxCell id="on3z6NU64TIwl9_QxX8q-2" value="Interface file" style="whiteSpace=wrap;html=1;shape=mxgraph.basic.document" parent="1" vertex="1">
          <mxGeometry x="452" y="311" width="82" height="88" as="geometry" />
        </mxCell>
        <mxCell id="on3z6NU64TIwl9_QxX8q-3" style="edgeStyle=orthogonalEdgeStyle;rounded=1;orthogonalLoop=1;jettySize=auto;html=1;entryX=0.5;entryY=1;entryDx=0;entryDy=0;entryPerimeter=0;curved=0;fillColor=#1ba1e2;strokeColor=#006EAF;strokeWidth=2;" parent="1" source="on3z6NU64TIwl9_QxX8q-2" target="F6ZkjMpdz7qYB0OgJaHN-2" edge="1">
          <mxGeometry relative="1" as="geometry" />
        </mxCell>
        <mxCell id="on3z6NU64TIwl9_QxX8q-4" value="1) MFT - Nightly batch." style="text;html=1;align=center;verticalAlign=middle;whiteSpace=wrap;rounded=0;fontColor=#1855FF;" parent="1" vertex="1">
          <mxGeometry x="426" y="249" width="60" height="30" as="geometry" />
        </mxCell>
        <mxCell id="on3z6NU64TIwl9_QxX8q-7" style="edgeStyle=orthogonalEdgeStyle;rounded=0;orthogonalLoop=1;jettySize=auto;html=1;exitX=0.5;exitY=0;exitDx=0;exitDy=0;exitPerimeter=0;entryX=0.5;entryY=1;entryDx=0;entryDy=0;entryPerimeter=0;startArrow=none;startFill=0;strokeWidth=2;fillColor=#1ba1e2;strokeColor=#006EAF;" parent="1" source="F6ZkjMpdz7qYB0OgJaHN-2" target="F6ZkjMpdz7qYB0OgJaHN-7" edge="1">
          <mxGeometry relative="1" as="geometry" />
        </mxCell>
        <mxCell id="on3z6NU64TIwl9_QxX8q-8" value="2) Trigger ingestion lambda." style="text;html=1;align=center;verticalAlign=middle;whiteSpace=wrap;rounded=0;fontColor=#1855FF;" parent="1" vertex="1">
          <mxGeometry x="505" y="-7" width="60" height="30" as="geometry" />
        </mxCell>
        <mxCell id="on3z6NU64TIwl9_QxX8q-11" value="Third party API" style="rounded=1;whiteSpace=wrap;html=1;fillColor=#f8cecc;strokeColor=#b85450;" parent="1" vertex="1">
          <mxGeometry x="931" y="-216" width="120" height="105" as="geometry" />
        </mxCell>
        <mxCell id="on3z6NU64TIwl9_QxX8q-13" value="5) Enrich contract data." style="text;html=1;align=center;verticalAlign=middle;whiteSpace=wrap;rounded=0;fontColor=#1855FF;" parent="1" vertex="1">
          <mxGeometry x="823" y="-336" width="60" height="30" as="geometry" />
        </mxCell>
        <mxCell id="on3z6NU64TIwl9_QxX8q-15" value="Signicat API" style="rounded=1;whiteSpace=wrap;html=1;fillColor=#f8cecc;strokeColor=#b85450;" parent="1" vertex="1">
          <mxGeometry x="58" y="-555" width="151" height="215" as="geometry" />
        </mxCell>
        <mxCell id="on3z6NU64TIwl9_QxX8q-16" style="edgeStyle=orthogonalEdgeStyle;rounded=0;orthogonalLoop=1;jettySize=auto;html=1;entryX=1;entryY=0.5;entryDx=0;entryDy=0;entryPerimeter=0;startArrow=classic;startFill=1;strokeWidth=2;fillColor=#1ba1e2;strokeColor=#006EAF;" parent="1" source="F6ZkjMpdz7qYB0OgJaHN-7" target="F6ZkjMpdz7qYB0OgJaHN-6" edge="1">
          <mxGeometry relative="1" as="geometry" />
        </mxCell>
        <mxCell id="on3z6NU64TIwl9_QxX8q-21" style="edgeStyle=orthogonalEdgeStyle;rounded=0;orthogonalLoop=1;jettySize=auto;html=1;entryX=0.5;entryY=0;entryDx=0;entryDy=0;entryPerimeter=0;startArrow=classic;startFill=1;strokeWidth=2;" parent="1" source="F6ZkjMpdz7qYB0OgJaHN-9" target="F6ZkjMpdz7qYB0OgJaHN-6" edge="1">
          <mxGeometry relative="1" as="geometry" />
        </mxCell>
        <mxCell id="on3z6NU64TIwl9_QxX8q-25" value="9) Update signing status." style="text;html=1;align=center;verticalAlign=middle;whiteSpace=wrap;rounded=0;fontColor=#1855FF;" parent="1" vertex="1">
          <mxGeometry x="238" y="-213" width="78" height="48" as="geometry" />
        </mxCell>
        <mxCell id="qlLj7YZ1tqoJXEKJfKqB-2" value="Invoice file" style="whiteSpace=wrap;html=1;shape=mxgraph.basic.document" parent="1" vertex="1">
          <mxGeometry x="609" y="309" width="82" height="88" as="geometry" />
        </mxCell>
        <mxCell id="qlLj7YZ1tqoJXEKJfKqB-4" style="edgeStyle=orthogonalEdgeStyle;rounded=1;orthogonalLoop=1;jettySize=auto;html=1;entryX=0.5;entryY=1;entryDx=0;entryDy=0;entryPerimeter=0;curved=0;strokeWidth=2;fillColor=#d80073;strokeColor=#A50040;" parent="1" source="qlLj7YZ1tqoJXEKJfKqB-2" target="F6ZkjMpdz7qYB0OgJaHN-2" edge="1">
          <mxGeometry relative="1" as="geometry" />
        </mxCell>
        <mxCell id="qlLj7YZ1tqoJXEKJfKqB-8" style="edgeStyle=orthogonalEdgeStyle;rounded=0;orthogonalLoop=1;jettySize=auto;html=1;entryX=0.5;entryY=1;entryDx=0;entryDy=0;startArrow=classic;startFill=1;strokeWidth=2;fontColor=#FF1087;fillColor=#d80073;strokeColor=#A50040;" parent="1" source="qlLj7YZ1tqoJXEKJfKqB-6" target="on3z6NU64TIwl9_QxX8q-11" edge="1">
          <mxGeometry relative="1" as="geometry" />
        </mxCell>
        <mxCell id="qlLj7YZ1tqoJXEKJfKqB-6" value="generate_invoice_pdfs" style="outlineConnect=0;dashed=0;verticalLabelPosition=bottom;verticalAlign=top;align=center;html=1;shape=mxgraph.aws3.lambda_function;fillColor=#F58534;gradientColor=none;" parent="1" vertex="1">
          <mxGeometry x="776" y="60" width="69" height="72" as="geometry" />
        </mxCell>
        <mxCell id="qlLj7YZ1tqoJXEKJfKqB-9" value="1) MFT - Nightly batch." style="text;html=1;align=center;verticalAlign=middle;whiteSpace=wrap;rounded=0;fontColor=#D80073;" parent="1" vertex="1">
          <mxGeometry x="659" y="249" width="60" height="30" as="geometry" />
        </mxCell>
        <mxCell id="qlLj7YZ1tqoJXEKJfKqB-17" value="SNS" style="sketch=0;points=[[0,0,0],[0.25,0,0],[0.5,0,0],[0.75,0,0],[1,0,0],[0,1,0],[0.25,1,0],[0.5,1,0],[0.75,1,0],[1,1,0],[0,0.25,0],[0,0.5,0],[0,0.75,0],[1,0.25,0],[1,0.5,0],[1,0.75,0]];outlineConnect=0;fontColor=#232F3E;fillColor=#E7157B;strokeColor=#ffffff;dashed=0;verticalLabelPosition=bottom;verticalAlign=top;align=center;html=1;fontSize=12;fontStyle=0;aspect=fixed;shape=mxgraph.aws4.resourceIcon;resIcon=mxgraph.aws4.sns;" parent="1" vertex="1">
          <mxGeometry x="771.5" y="-87" width="78" height="78" as="geometry" />
        </mxCell>
        <mxCell id="qlLj7YZ1tqoJXEKJfKqB-18" style="edgeStyle=orthogonalEdgeStyle;rounded=0;orthogonalLoop=1;jettySize=auto;html=1;entryX=0.5;entryY=1;entryDx=0;entryDy=0;entryPerimeter=0;strokeWidth=2;fontColor=#FF1087;fillColor=#d80073;strokeColor=#A50040;" parent="1" source="qlLj7YZ1tqoJXEKJfKqB-6" target="qlLj7YZ1tqoJXEKJfKqB-17" edge="1">
          <mxGeometry relative="1" as="geometry" />
        </mxCell>
        <mxCell id="qlLj7YZ1tqoJXEKJfKqB-22" value="Data enrichment, PDF-generation, bundling PDFs,&lt;div&gt;signing, waiting for signing response, processing and transferring.&lt;/div&gt;" style="text;html=1;align=center;verticalAlign=middle;whiteSpace=wrap;rounded=0;" parent="1" vertex="1">
          <mxGeometry x="510" y="-503" width="125.5" height="233" as="geometry" />
        </mxCell>
        <mxCell id="qlLj7YZ1tqoJXEKJfKqB-24" style="edgeStyle=orthogonalEdgeStyle;rounded=0;orthogonalLoop=1;jettySize=auto;html=1;entryX=0;entryY=0.5;entryDx=0;entryDy=0;entryPerimeter=0;strokeWidth=2;fillColor=#1ba1e2;strokeColor=#006EAF;" parent="1" source="on3z6NU64TIwl9_QxX8q-15" target="F6ZkjMpdz7qYB0OgJaHN-9" edge="1">
          <mxGeometry relative="1" as="geometry">
            <Array as="points">
              <mxPoint x="140" y="-276" />
            </Array>
          </mxGeometry>
        </mxCell>
        <mxCell id="qlLj7YZ1tqoJXEKJfKqB-26" style="edgeStyle=orthogonalEdgeStyle;rounded=0;orthogonalLoop=1;jettySize=auto;html=1;entryX=0;entryY=0.67;entryDx=0;entryDy=0;entryPerimeter=0;strokeWidth=2;fillColor=#1ba1e2;strokeColor=#006EAF;" parent="1" source="F6ZkjMpdz7qYB0OgJaHN-9" target="F6ZkjMpdz7qYB0OgJaHN-3" edge="1">
          <mxGeometry relative="1" as="geometry" />
        </mxCell>
        <mxCell id="qlLj7YZ1tqoJXEKJfKqB-27" value="OnBase" style="rounded=1;whiteSpace=wrap;html=1;fillColor=#dae8fc;strokeColor=#6c8ebf;" parent="1" vertex="1">
          <mxGeometry x="949" y="-473.5" width="120" height="60" as="geometry" />
        </mxCell>
        <mxCell id="qlLj7YZ1tqoJXEKJfKqB-29" value="&lt;font style=&quot;font-size: 18px;&quot;&gt;Step-function&lt;/font&gt;" style="text;html=1;align=center;verticalAlign=middle;whiteSpace=wrap;rounded=0;" parent="1" vertex="1">
          <mxGeometry x="505" y="-530" width="117" height="30" as="geometry" />
        </mxCell>
        <mxCell id="qlLj7YZ1tqoJXEKJfKqB-30" value="6) Initiate signing." style="text;html=1;align=center;verticalAlign=middle;whiteSpace=wrap;rounded=0;fontColor=#1855FF;" parent="1" vertex="1">
          <mxGeometry x="262" y="-481" width="80" height="30" as="geometry" />
        </mxCell>
        <mxCell id="qlLj7YZ1tqoJXEKJfKqB-33" value="7) Callback when signing is complete." style="text;html=1;align=center;verticalAlign=middle;whiteSpace=wrap;rounded=0;fontColor=#1855FF;" parent="1" vertex="1">
          <mxGeometry x="62" y="-269.5" width="113" height="30" as="geometry" />
        </mxCell>
        <mxCell id="qlLj7YZ1tqoJXEKJfKqB-34" value="8) Deliver signing result and resume step-function." style="text;html=1;align=center;verticalAlign=middle;whiteSpace=wrap;rounded=0;fontColor=#1855FF;" parent="1" vertex="1">
          <mxGeometry x="324" y="-370" width="75" height="30" as="geometry" />
        </mxCell>
        <mxCell id="qlLj7YZ1tqoJXEKJfKqB-36" value="3) Write raw data." style="text;html=1;align=center;verticalAlign=middle;whiteSpace=wrap;rounded=0;fontColor=#1855FF;" parent="1" vertex="1">
          <mxGeometry x="420" y="-110" width="60" height="30" as="geometry" />
        </mxCell>
        <mxCell id="qlLj7YZ1tqoJXEKJfKqB-37" value="2) trigger lambda with file upload." style="text;html=1;align=center;verticalAlign=middle;whiteSpace=wrap;rounded=0;fontColor=#D80073;" parent="1" vertex="1">
          <mxGeometry x="651" y="60" width="86" height="30" as="geometry" />
        </mxCell>
        <mxCell id="qlLj7YZ1tqoJXEKJfKqB-38" value="3) Enrich data." style="text;html=1;align=center;verticalAlign=middle;whiteSpace=wrap;rounded=0;fontColor=#D80073;" parent="1" vertex="1">
          <mxGeometry x="925" y="54" width="60" height="30" as="geometry" />
        </mxCell>
        <mxCell id="qlLj7YZ1tqoJXEKJfKqB-40" value="4) Send emails." style="text;html=1;align=center;verticalAlign=middle;whiteSpace=wrap;rounded=0;fontColor=#D80073;" parent="1" vertex="1">
          <mxGeometry x="809" y="11" width="60" height="30" as="geometry" />
        </mxCell>
        <mxCell id="qlLj7YZ1tqoJXEKJfKqB-41" value="10) Transfer signed PDF and DIP-file." style="text;html=1;align=center;verticalAlign=middle;whiteSpace=wrap;rounded=0;fontColor=#1855FF;" parent="1" vertex="1">
          <mxGeometry x="744" y="-481" width="120" height="30" as="geometry" />
        </mxCell>
        <mxCell id="lJjoPP4x9dMzKAjce_te-4" value="4) Trigger one step-function for each bundle id." style="text;html=1;align=center;verticalAlign=middle;whiteSpace=wrap;rounded=0;fontColor=#1855FF;" vertex="1" parent="1">
          <mxGeometry x="505" y="-222" width="60" height="30" as="geometry" />
        </mxCell>
        <mxCell id="lJjoPP4x9dMzKAjce_te-8" style="edgeStyle=orthogonalEdgeStyle;rounded=0;orthogonalLoop=1;jettySize=auto;html=1;exitX=0.67;exitY=1;exitDx=0;exitDy=0;exitPerimeter=0;entryX=1;entryY=0;entryDx=0;entryDy=0;entryPerimeter=0;strokeWidth=2;fillColor=#1ba1e2;strokeColor=#006EAF;startArrow=classic;startFill=1;" edge="1" parent="1" source="F6ZkjMpdz7qYB0OgJaHN-3" target="F6ZkjMpdz7qYB0OgJaHN-2">
          <mxGeometry relative="1" as="geometry">
            <Array as="points">
              <mxPoint x="629" y="-257" />
              <mxPoint x="629" y="57" />
            </Array>
          </mxGeometry>
        </mxCell>
        <mxCell id="lJjoPP4x9dMzKAjce_te-9" value="Read and write PDFs." style="text;html=1;align=center;verticalAlign=middle;whiteSpace=wrap;rounded=0;fontColor=#1855FF;" vertex="1" parent="1">
          <mxGeometry x="633.25" y="-145" width="60" height="30" as="geometry" />
        </mxCell>
      </root>
    </mxGraphModel>
  </diagram>
</mxfile>
